<?xml version="1.0" encoding="utf-8"?>
<!-- Generator: Adobe Illustrator 24.1.0, SVG Export Plug-In . SVG Version: 6.00 Build 0)  -->
<svg version="1.1" id="Layer_1" xmlns="http://www.w3.org/2000/svg" xmlns:xlink="http://www.w3.org/1999/xlink" x="0px" y="0px"
	 viewBox="0 0 182 57.1" style="enable-background:new 0 0 182 57.1;" xml:space="preserve">
<style type="text/css">
	.st0{fill-rule:evenodd;clip-rule:evenodd;fill:#333333;}
	.st1{filter:url(#Adobe_OpacityMaskFilter);}
	.st2{fill-rule:evenodd;clip-rule:evenodd;fill:#FFFFFF;}
	.st3{mask:url(#mask-2_1_);fill-rule:evenodd;clip-rule:evenodd;fill:#68B996;}
</style>
<g id="Page-1">
	<g id="Basic-Page-_x28_Gallery_x29_" transform="translate(-100.000000, -37.000000)">
		<g id="Group-20" transform="translate(100.000000, 37.000000)">
			<path id="Fill-1" class="st0" d="M123.3,41.3c0-2-0.1-3.7-0.3-5.1c-0.2-1.4-0.5-2.7-0.8-3.7c-0.3-1.1-0.7-2-1.2-2.7
				s-0.9-1.5-1.3-2.2c-0.4-0.7-0.9-1.4-1.3-2.1c-0.4-0.7-0.8-1.5-1.1-2.4c-0.3-0.9-0.6-1.9-0.8-3.1c-0.2-1.2-0.3-2.5-0.3-4.2l0-6.8
				c0-0.4,0.1-1,0.2-1.5c0.1-0.6,0.4-1.1,0.8-1.6c0.4-0.5,1-0.9,1.7-1.3c0.7-0.3,1.6-0.5,2.8-0.5c1.1,0,2.1,0.2,2.8,0.5
				c0.7,0.4,1.3,0.8,1.7,1.3c0.4,0.5,0.7,1,0.8,1.6C126.9,8,127,8.6,127,9l0,12.6l-3.6,0l0-12.6c0-0.5,0-0.8-0.2-1.1
				c-0.1-0.3-0.2-0.5-0.4-0.7c-0.2-0.2-0.4-0.3-0.6-0.3c-0.2-0.1-0.4-0.1-0.7-0.1c-0.2,0-0.4,0-0.7,0.1c-0.2,0.1-0.4,0.2-0.6,0.3
				c-0.2,0.2-0.3,0.4-0.4,0.7c-0.1,0.3-0.2,0.7-0.2,1.1l0,5.5c0,2.1,0.2,3.9,0.5,5.3c0.4,1.4,0.8,2.7,1.4,3.7c0.5,1.1,1.1,2,1.7,2.9
				c0.6,0.9,1.1,1.8,1.7,2.8c0.6,1,1.1,2.1,1.4,3.4c0.3,1.3,0.5,3,0.5,5l0,11c0,0.2,0,0.6-0.1,1.2c-0.1,0.6-0.3,1.2-0.6,1.8
				c-0.3,0.6-0.9,1.2-1.6,1.6c-0.7,0.5-1.8,0.7-3.1,0.7c-1.4,0-2.4-0.2-3.1-0.7c-0.7-0.5-1.3-1-1.6-1.7c-0.3-0.6-0.5-1.2-0.6-1.8
				c-0.1-0.6-0.1-1-0.1-1.2l0.1-16.2l3.6,0l-0.1,16.2c0,0.2,0,0.5,0,0.8c0,0.3,0.1,0.6,0.2,0.9c0.1,0.3,0.3,0.5,0.5,0.7
				c0.2,0.2,0.6,0.3,1,0.3c0.5,0,0.8-0.1,1-0.3c0.2-0.2,0.4-0.4,0.5-0.7c0.1-0.3,0.2-0.6,0.2-0.9c0-0.3,0-0.6,0-0.8L123.3,41.3z"/>
			<path id="Fill-3" class="st0" d="M141.5,27.6l-0.8-21.8l-1,21.8l-0.5,10.9l2.7,0L141.5,27.6z M146,53.1l-3.7,0l-0.4-11.8l-2.7,0
				L138.7,53l-3.7,0l2.9-49l5.5,0L146,53.1z"/>
			<path id="Fill-5" class="st0" d="M164.9,24.3l-3.6,0L161.4,9c0-0.2,0-0.5,0-0.7c0-0.3-0.1-0.5-0.2-0.7c-0.1-0.2-0.3-0.4-0.5-0.6
				c-0.2-0.1-0.6-0.2-1-0.2c-0.5,0-0.8,0.1-1,0.2c-0.2,0.1-0.4,0.3-0.5,0.5c-0.1,0.2-0.2,0.5-0.2,0.7c0,0.3,0,0.5,0,0.7l-0.1,39.7
				c0,0.2,0,0.5,0,0.8c0,0.3,0.1,0.6,0.2,0.9c0.1,0.3,0.3,0.5,0.5,0.7c0.2,0.2,0.6,0.3,1,0.3c0.5,0,0.8-0.1,1-0.3
				c0.2-0.2,0.4-0.4,0.5-0.7c0.1-0.3,0.2-0.6,0.2-0.9c0-0.3,0-0.6,0-0.8l0.1-18l-0.9,0l0-2.7l4.5,0l-0.1,20.7c0,0.2,0,0.6-0.1,1.2
				c-0.1,0.6-0.3,1.2-0.6,1.8c-0.3,0.6-0.9,1.2-1.6,1.6c-0.7,0.5-1.8,0.7-3.1,0.7c-1.4,0-2.4-0.2-3.1-0.7c-0.7-0.5-1.3-1-1.6-1.7
				c-0.3-0.6-0.5-1.2-0.6-1.8c-0.1-0.6-0.1-1-0.1-1.2L154.1,9c0-0.2,0-0.4,0-0.7c0-0.3,0.1-0.6,0.2-1c0.1-0.4,0.3-0.7,0.5-1.1
				c0.2-0.4,0.5-0.7,0.9-1.1c0.4-0.3,0.9-0.6,1.5-0.8c0.6-0.2,1.4-0.3,2.3-0.3c0.9,0,1.7,0.1,2.3,0.3c0.6,0.2,1.1,0.5,1.5,0.8
				c0.4,0.3,0.7,0.7,0.9,1.1c0.2,0.4,0.4,0.8,0.5,1.1c0.1,0.4,0.1,0.7,0.2,1c0,0.3,0,0.5,0,0.7L164.9,24.3z"/>
			<polygon id="Fill-7" class="st0" points="182,6.8 177.6,6.8 177.6,25.8 181.1,25.8 181,28.6 177.6,28.6 177.5,50.3 181.8,50.3 
				181.8,53.1 174,53 174.2,4.1 182,4.1 			"/>
			<path id="Fill-9" class="st0" d="M3.7,24.8l2.7,0c0.2,0,0.4-0.1,0.5-0.2c0.1-0.1,0.2-0.2,0.3-0.4c0.1-0.2,0.1-0.4,0.1-0.6
				c0-0.2,0-0.4,0-0.7L7.4,7.6c0-0.5-0.1-0.8-0.2-1C7.1,6.3,6.9,6.1,6.6,6C6.3,5.9,5.9,5.8,5.5,5.8c-0.5,0-1,0-1.7,0L3.7,24.8z
				 M7.3,29.4c0-0.2,0-0.4,0-0.7c0-0.2,0-0.4-0.1-0.6c-0.1-0.2-0.1-0.3-0.3-0.4c-0.1-0.1-0.3-0.2-0.5-0.2l-2.7,0L3.6,49.3
				c0.7,0,1.2,0,1.7,0c0.5,0,0.8-0.1,1.1-0.2c0.3-0.1,0.5-0.3,0.6-0.5s0.2-0.6,0.2-1L7.3,29.4z M10.9,47.5c0,1.1-0.2,2-0.6,2.6
				c-0.4,0.6-1,1.1-1.6,1.3c-0.7,0.3-1.5,0.4-2.3,0.5c-0.9,0-1.8,0.1-2.7,0.1L0,52l0.2-49l3.6,0c1.1,0,2.1,0,3,0.1
				c0.9,0,1.7,0.2,2.3,0.5c0.6,0.3,1.1,0.7,1.4,1.4C10.8,5.6,11,6.5,11,7.6L10.9,23c0,0.9-0.2,1.6-0.7,2.1c-0.5,0.5-1.1,0.9-2,1.1
				c0.9,0.2,1.6,0.6,2,1.1c0.4,0.5,0.7,1.2,0.7,2.1L10.9,47.5z"/>
			<polygon id="Fill-11" class="st0" points="23.7,3.1 23.5,49.3 27,49.3 27,52.1 20,52 20.2,3.1 			"/>
			<path id="Fill-13" class="st0" d="M40.6,47.6c0,0.2,0,0.5,0,0.8c0,0.3,0.1,0.6,0.2,0.9c0.1,0.3,0.3,0.5,0.5,0.7s0.6,0.3,1,0.3
				c0.5,0,0.8-0.1,1-0.3c0.2-0.2,0.4-0.4,0.5-0.7c0.1-0.3,0.2-0.6,0.2-0.9c0-0.3,0-0.6,0-0.8l0.2-44.5l3.6,0l-0.2,44.5
				c0,0.2,0,0.6-0.1,1.2c-0.1,0.6-0.3,1.2-0.6,1.8c-0.3,0.6-0.9,1.2-1.6,1.7c-0.7,0.5-1.8,0.7-3.1,0.7c-1.4,0-2.4-0.3-3.1-0.7
				c-0.7-0.5-1.3-1-1.6-1.7c-0.3-0.6-0.5-1.2-0.6-1.8c-0.1-0.6-0.1-1-0.1-1.2l0.2-44.5l3.6,0L40.6,47.6z"/>
			<polygon id="Fill-15" class="st0" points="65,5.8 60.6,5.8 60.6,24.8 64.1,24.8 64,27.6 60.6,27.6 60.5,49.3 64.8,49.3 
				64.8,52.1 57,52 57.2,3.1 65,3.1 			"/>
			<g id="Group-19" transform="translate(80.000000, 0.364583)">
				<g id="Clip-18">
				</g>
				<defs>
					<filter id="Adobe_OpacityMaskFilter" filterUnits="userSpaceOnUse" x="0.6" y="-0.4" width="21.8" height="57.1">
						<feColorMatrix  type="matrix" values="1 0 0 0 0  0 1 0 0 0  0 0 1 0 0  0 0 0 1 0"/>
					</filter>
				</defs>
				<mask maskUnits="userSpaceOnUse" x="0.6" y="-0.4" width="21.8" height="57.1" id="mask-2_1_">
					<g class="st1">
						<polygon id="path-1_1_" class="st2" points="0.6,-0.4 22.4,-0.4 22.4,56.7 0.6,56.7 						"/>
					</g>
				</mask>
				<path id="Fill-17" class="st3" d="M22.3,23.2c-0.2,3.7-1.9,6.8-3.7,9.7c-2.6,4.2-6.4,7.5-9.9,11c-1.4,1.4-2.2,3.1-2.9,5
					c-0.7,2.1-1.5,4.2-2.3,6.4c-0.1,0.2-0.2,0.4-0.4,0.6c-0.4,0.4-0.9,0.7-1.5,0.8c-0.2,0-0.4-0.2-0.4-0.4c0.3-2,0.7-3.9,1.7-5.6
					c0.8-1.4,1.6-2.8,2.3-4.2c0.2-0.3,0.1-1.1-0.2-1.4C3,42.4,2.4,39.6,2,36.7c-0.2-1.3-0.4-2.7-0.7-4c-1-4.1-0.7-7.9,0-11.7
					c0.7-3.8,2-7.2,4.7-10C9.4,7.6,12.6,3.7,16,0c0.2-0.2,0.5-0.4,0.8-0.4c0.1,0,0.5,0.5,0.6,0.7c1.4,5,2.9,10,4.1,15
					C22.1,18,22.5,20.7,22.3,23.2"/>
			</g>
		</g>
	</g>
</g>
</svg>
