<?xml version="1.0" encoding="UTF-8"?>
<svg width="619px" height="247px" viewBox="0 0 619 247" version="1.1" xmlns="http://www.w3.org/2000/svg" xmlns:xlink="http://www.w3.org/1999/xlink">
    <title>blue-sage-logo-white</title>
    <g id="Page-1" stroke="none" stroke-width="1" fill="none" fill-rule="evenodd">
        <g id="Homepage" transform="translate(-391.000000, -368.000000)" fill-rule="nonzero">
            <g id="blue-sage-logo-white" transform="translate(391.000000, 368.000000)">
                <path d="M429.813129,144.181922 C429.885381,138.698684 429.573708,133.217102 428.880379,127.777107 C428.346003,123.730366 427.481644,119.733758 426.295885,115.826965 C425.348883,112.761037 424.044493,109.816347 422.409428,107.053197 L418.134325,99.9450898 L414.034113,93.1468727 C412.60748,90.7270538 411.397982,88.1864199 410.419707,85.5545618 C409.244852,82.3765606 408.373024,79.0953015 407.815781,75.7542829 C407.122769,71.3603339 406.8107,66.9150627 406.883031,62.4677388 L406.883031,40.7366857 C406.933488,39.0825296 407.168114,37.4390757 407.582593,35.8365462 C408.068285,33.9582628 408.956653,32.2072151 410.18652,30.7039891 C411.628713,28.9809173 413.441972,27.6039471 415.491534,26.675416 C421.152803,24.441528 427.455349,24.441528 433.116618,26.675416 C435.155898,27.6292994 436.960223,29.0177462 438.4022,30.7427254 C439.61011,32.2591557 440.478124,34.0158684 440.947829,35.8946506 C441.362089,37.5027502 441.583865,39.15408 441.608527,40.8141582 L441.472501,81.1773621 L429.813129,81.1773621 L429.968588,40.8141582 C430.00676,39.6075771 429.842567,38.4031095 429.48278,37.2504205 C429.221054,36.4375699 428.775631,35.6954394 428.180817,35.0811888 C427.633296,34.5646879 426.965524,34.1919698 426.237589,33.9965729 C424.857918,33.570134 423.38102,33.570134 422.00135,33.9965729 C421.277946,34.1928636 420.611833,34.5580163 420.058121,35.0618206 C419.454037,35.6723579 419.00153,36.4152035 418.736726,37.2310523 C418.370721,38.3760549 418.19994,39.574123 418.231486,40.7754219 L418.231486,58.206748 C418.100166,63.9225487 418.667883,69.633012 419.922095,75.211975 C420.922635,79.3380857 422.382638,83.3398405 424.274928,87.1427493 C426.023833,90.5321738 427.792171,93.6891806 429.579942,96.5750335 L435.118143,105.542482 C437.161165,108.966073 438.662143,112.683265 439.568137,116.562954 C440.719906,121.763071 441.241827,127.082095 441.12272,132.406093 L440.986694,167.617371 C440.986694,168.353361 440.986694,169.554185 440.714642,171.490999 C440.465896,173.538436 439.804947,175.514737 438.771413,177.301441 C437.632699,179.468481 435.977924,181.323958 433.952206,182.705152 C427.613145,185.764949 420.217715,185.764949 413.878654,182.705152 C409.921514,180.299878 407.324738,176.184561 406.863599,171.58784 C406.688708,169.651026 406.591547,168.392097 406.610979,167.714212 L406.78587,115.807597 L418.34808,115.807597 L418.17319,167.714212 C418.17319,168.430833 418.17319,169.283031 418.17319,170.270806 C418.231878,171.246134 418.441638,172.206536 418.795023,173.117923 C419.158517,174.018965 419.747183,174.812374 420.505064,175.422732 C421.475184,176.115549 422.656622,176.45101 423.847417,176.371771 C425.042893,176.466171 426.233432,176.136938 427.209203,175.4421 C427.9715,174.843965 428.561472,174.055478 428.919244,173.156659 C429.287144,172.247784 429.510074,171.287123 429.579942,170.309543 C429.579942,169.321768 429.677103,168.372729 429.677103,167.752948 L429.813129,144.181922 Z" id="Path" fill="#FFFFFF"></path>
                <path d="M499.608527,182 L487.909363,182 L486.602956,144.459167 L477.984572,144.459167 L476.307691,181.980609 L464.608527,181.980609 L474.006856,26 L491.419112,26 L499.608527,182 Z M485.374544,101.101057 L482.722733,31.8172778 L479.563959,101.081666 L478.082065,135.791423 L486.700449,135.791423 L485.374544,101.101057 Z" id="Shape" fill="#FFFFFF"></path>
                <path d="M561.608527,89.8252151 L549.987055,89.8252151 L550.161377,40.7650878 C550.161377,40.0285075 550.161377,39.2531598 550.161377,38.419661 C550.111621,37.6169275 549.900826,36.8324442 549.541565,36.1130015 C549.142157,35.3823994 548.553341,34.7730519 547.837083,34.3490854 C545.71518,33.378617 543.276639,33.378617 541.154736,34.3490854 C540.430967,34.7547311 539.83923,35.360372 539.450254,36.0936178 C539.078498,36.8024418 538.860675,37.5819079 538.811073,38.3808936 C538.811073,39.2337761 538.811073,40.0091238 538.811073,40.7263204 L538.365583,167.728278 C538.365583,168.445474 538.365583,169.298357 538.365583,170.286925 C538.414886,171.264283 538.624278,172.226899 538.985395,173.136328 C539.346184,174.038944 539.933201,174.833349 540.689877,175.442987 C542.733975,176.697537 545.308757,176.697537 547.352855,175.442987 C548.112722,174.839905 548.706089,174.052601 549.076706,173.155712 C549.444123,172.247309 549.660054,171.284712 549.715887,170.306309 C549.715887,169.31774 549.715887,168.464858 549.715887,167.747661 L549.928948,110.023023 L547.042949,110.023023 L547.042949,101.377896 L561.472943,101.377896 L561.298621,167.747661 C561.298621,168.464858 561.298621,169.686031 561.008084,171.6244 C560.760147,173.673481 560.101347,175.651369 559.071172,177.439508 C557.813692,179.589498 556.043573,181.394247 553.918986,182.692489 C547.603846,185.76917 540.225826,185.76917 533.910685,182.692489 C531.785657,181.390711 530.026096,179.569796 528.797238,177.40074 C527.756024,175.617586 527.096443,173.637354 526.860326,171.585633 C526.686004,169.647263 526.608527,168.387323 526.608527,167.708894 L527.054017,40.7263204 C527.054017,40.2611118 527.054017,39.5245315 527.054017,38.5747305 C527.134926,37.4926391 527.323085,36.4212719 527.615721,35.3764211 C527.948837,34.1068917 528.46426,32.8924508 529.145882,31.7710542 C529.928707,30.4700228 530.946802,29.3262691 532.148095,28.3982916 C533.598493,27.2774059 535.24821,26.4420607 537.009745,25.9365626 C539.384031,25.2648032 541.845163,24.9512138 544.311903,25.0061453 C546.780269,24.9692378 549.240642,25.2957927 551.614061,25.97533 C553.374869,26.5015645 555.023169,27.3493361 556.47571,28.4758264 C557.657438,29.4209813 558.661016,30.5697278 559.439186,31.8679727 C560.111694,32.9985639 560.620369,34.2189967 560.949977,35.4927233 C561.222001,36.5405075 561.397062,37.6111282 561.472943,38.6910327 C561.472943,39.6602173 561.472943,40.377414 561.472943,40.8620063 L561.608527,89.8252151 Z" id="Path" fill="#FFFFFF"></path>
                <polygon id="Path" fill="#FFFFFF" points="618.58879 35.6731343 603.90458 35.6731343 603.687475 96.3462687 615.430896 96.3462687 615.430896 105.019403 603.58879 105.019403 603.351948 174.346269 618.036159 174.346269 618.036159 183 591.608527 183 592.161159 27 618.608527 27"></polygon>
                <path d="M35.0602438,165.638522 C35.2588778,168.550846 34.5882063,171.456449 33.1344911,173.981613 C31.8653322,175.897562 30.0537394,177.38479 27.9349586,178.250171 C25.5888506,179.18719 23.1007133,179.712189 20.5785831,179.802374 C17.8247567,179.957594 15.0131577,180.015802 12.1630436,179.996399 L0.608527132,179.996399 L1.1477379,24 L12.7022544,24 C16.2841545,24 19.5001616,24.1164152 22.3310181,24.2716355 C24.8107921,24.3485455 27.2540646,24.8948521 29.5333334,25.8820461 C31.4634527,26.7718721 33.0476574,28.2793318 34.0395949,30.1700068 C35.212926,32.792182 35.7413957,35.6607513 35.5801971,38.5325004 L35.4068793,87.640322 C35.5639002,90.0647585 34.7841361,92.4564283 33.2307787,94.3147948 C31.4583218,96.0796191 29.2184593,97.2921897 26.779507,97.8072515 C29.2126254,98.2525629 31.4549608,99.429522 33.2115212,101.183293 C34.7387872,103.054261 35.5029361,105.440267 35.3491067,107.857766 L35.0602438,165.638522 Z M23.7945902,107.818961 C23.7945902,107.101067 23.7945902,106.402575 23.7945902,105.704084 C23.787452,105.045559 23.6836203,104.391724 23.4864698,103.76383 C23.3271844,103.260661 23.034136,102.811068 22.6391386,102.46386 C22.1657212,102.099614 21.5774042,101.920411 20.9829912,101.959394 L12.394134,101.959394 L12.1437861,171.304062 C14.3006292,171.304062 16.1108368,171.304062 17.5744089,171.304062 C18.7756623,171.301071 19.9675576,171.091082 21.0985364,170.683181 C21.9325368,170.381373 22.6211314,169.770847 23.0242891,168.975758 C23.4613831,167.920202 23.6650968,166.781408 23.6212725,165.638522 L23.7945902,107.818961 Z M12.3748764,93.2670578 L20.9829912,93.2670578 C21.5746384,93.3081132 22.1615392,93.1362178 22.6391386,92.7819944 C23.0388098,92.4389182 23.3328046,91.9878732 23.4864698,91.4820244 C23.6904338,90.8551946 23.8007659,90.2012948 23.8138478,89.5417706 C23.8138478,88.8626818 23.8138478,88.144788 23.8138478,87.4268941 L23.9871655,38.3190725 C24.0408443,37.1773701 23.8435702,36.0378148 23.4094397,34.9818361 C23.0117406,34.1781893 22.3220786,33.5597682 21.4836869,33.2550102 C20.3540566,32.8397555 19.1619999,32.6231758 17.9595594,32.6147265 C16.4959873,32.6147265 14.6857797,32.5759214 12.5289366,32.4983113 L12.3748764,93.2670578 Z" id="Shape" fill="#FFFFFF"></path>
                <polygon id="Path" fill="#FFFFFF" points="76.5430359 24.019403 76.0216254 171.346269 87.6085271 171.346269 87.6085271 180 64.6085271 180 65.1492492 24"></polygon>
                <path d="M129.153131,165.608615 C129.153131,166.34616 129.153131,167.20016 129.153131,168.190022 C129.211339,169.167411 129.41938,170.129843 129.769871,171.043157 C130.134803,171.94361 130.717892,172.737668 131.465906,173.352837 C133.499873,174.609029 136.061895,174.609029 138.095862,173.352837 C138.858414,172.747305 139.449872,171.950901 139.81117,171.043157 C140.178778,170.140962 140.393756,169.18314 140.447184,168.209431 C140.447184,167.219569 140.543549,166.268524 140.543549,165.628024 L141.04465,24.0388182 L152.608527,24.0388182 L152.107426,165.72507 C152.107426,166.443206 152.01106,167.665977 151.818329,169.606885 C151.329263,174.20773 148.72479,178.310863 144.783637,180.689467 C138.499794,183.770178 131.158339,183.770178 124.874496,180.689467 C122.768852,179.374895 121.020461,177.554147 119.786391,175.390789 C118.761322,173.600309 118.105787,171.619831 117.859078,169.568067 C117.704893,167.627159 117.608527,166.365569 117.608527,165.686252 L118.109628,24 L129.673505,24 L129.153131,165.608615 Z" id="Path" fill="#FFFFFF"></path>
                <polygon id="Path" fill="#FFFFFF" points="209.509843 33.6343284 194.825632 33.6343284 194.608527 94.3074627 206.450632 94.3074627 206.450632 102.980597 194.608527 102.980597 194.371685 172.326866 209.055896 172.326866 209.055896 181 182.608527 181 183.161159 25 209.608527 25.0970149"></polygon>
                <path d="M352.926014,92.1933024 C350.94716,81.1473969 347.405219,70.4398474 342.406954,60.3934019 C333.260786,40.8956527 322.819073,21.7073915 312.802762,2.36438636 C312.280676,1.3778931 310.405035,-0.0921752918 309.805604,0.00453973404 C308.630248,0.362789409 307.647935,1.17817418 307.079156,2.26767134 C296.734125,20.2760091 287.085208,38.7098931 275.986053,56.3120278 C267.400644,69.7554164 265.15761,85.1331055 265.679695,101.1878 C266.201781,117.242494 268.174105,133.007043 275.850698,148.984366 C278.290593,154.123483 280.446634,159.392707 282.309091,164.768258 C286.46644,176.23866 291.261894,187.399574 302.496404,196.413414 C304.092768,197.895832 304.883459,200.052988 304.62342,202.216316 C303.037826,208.734908 300.96882,215.098757 298.822468,221.443263 C296.250712,229.180465 296.231376,237.362556 296.637442,245.75742 C296.733957,246.173495 296.992237,246.533946 297.355134,246.759018 C297.71803,246.984089 298.155625,247.055226 298.571093,246.956687 C301.912694,245.930466 304.351634,243.052608 304.816785,239.587002 C306.092994,230.224987 307.407877,220.901659 308.490721,211.500958 C309.496219,203.260838 311.255842,195.562322 315.799921,188.560154 C327.015095,171.364222 339.448468,154.748581 346.351601,135.17346 C351.224401,121.614013 355.265731,107.512962 352.926014,92.1933024 Z M343.625154,97.1451117 C334.943062,109.118432 326.37699,121.20781 317.366178,132.929671 C313.926071,137.053668 312.086352,142.2794 312.183994,147.649698 C312.300013,153.201139 311.971292,158.694554 311.855273,164.226654 C312.319349,164.342712 312.764089,164.516799 313.228165,164.632857 C315.161816,161.093087 316.940775,157.495288 318.816416,153.955518 C319.493193,154.22632 320.169971,154.574494 320.866085,154.883982 C319.470868,160.729448 317.628471,166.458964 315.355181,172.021885 C314.929778,173.105093 314.543048,174.168958 314.156318,175.252167 C309.283518,181.790102 307.717261,184.807611 303.211855,177.708728 C302.983181,177.327598 302.776584,176.933642 302.593087,176.528805 C302.146327,175.662881 301.783715,174.756046 301.510242,173.820784 C299.344553,166.083582 294.665119,159.100757 289.6763,152.137275 C286.652221,147.661251 283.963544,142.967416 281.632313,138.094254 C281.052218,136.933673 281.632313,135.405576 281.883688,134.032223 C283.058845,134.995532 284.110935,136.099948 285.016202,137.320533 C287.2399,140.957018 289.154214,144.690218 291.261894,148.384732 C296.038011,156.528138 300.930147,164.710229 305.686928,172.89232 C305.686928,173.027721 306.22835,173.08575 306.905128,173.259837 C307.15076,172.312535 307.331652,171.349607 307.44655,170.377729 C308.142664,148.616848 308.877451,126.855968 309.3802,105.056401 C309.378875,102.603809 308.802696,100.185694 307.697924,97.9962039 C301.722944,85.8487967 295.438579,73.7400754 289.405589,61.6120112 C288.491755,59.4653198 287.716699,57.2621297 287.085208,55.0160464 L288.84483,54.6872153 C297.217538,66.2930184 302.979817,78.5564837 309.515556,90.897321 C310.193288,86.4149181 310.555129,81.8903942 310.5984,77.3572174 C310.695083,72.8116112 310.733756,68.227319 310.965794,63.6623697 C310.989667,59.0014069 311.338571,54.3477884 312.009965,49.735406 C312.744753,45.6153459 308.858115,40.7602516 312.222667,37.2011387 C318.255657,55.6543656 311.87461,72.5214661 315.02646,90.742577 C316.910799,88.9177069 318.584232,86.8868514 320.015279,84.6882163 C324.656041,77.7827635 329.180783,70.7999386 333.937564,63.9718578 C334.595005,63.0240506 336.257945,62.6952195 337.437472,62.0375573 C337.340789,63.2755096 337.708183,64.803607 337.050742,65.7320713 C331.539837,74.0495635 325.738885,82.1542827 320.092625,90.4137459 C316.109305,96.2166474 312.70608,102.406409 313.0348,110.124268 C313.305511,116.50746 313.247502,122.832623 313.324848,130.221651 C325.758222,118.615847 331.57851,103.663704 344.263259,93.4699407 C344.60171,94.7292344 344.36827,96.0737323 343.625154,97.1451117 Z" id="Shape" fill="#68B996"></path>
                <path d="M215.859723,239.550726 C212.707678,242.542234 208.213095,244.018811 202.337061,243.999819 L192.608527,243.999819 L192.72527,210 L202.453803,210 C208.329838,210 212.82442,211.508538 215.937551,214.525614 C222.165519,221.701858 222.165519,232.278601 215.937551,239.454844 L215.859723,239.550726 Z M214.244786,238.112501 C219.7071,231.696527 219.7071,222.34146 214.244786,215.925486 C211.520797,213.279153 207.551555,211.936809 202.298147,211.917633 L194.904461,211.917633 L194.84609,241.909415 L202.239775,241.909415 C207.532098,242.043649 211.520797,240.739658 214.244786,238.074148 L214.244786,238.112501 Z" id="Shape" fill="#FFFFFF"></path>
                <polygon id="Path" fill="#FFFFFF" points="233.878264 212.725888 233.878264 227.012408 248.009843 227.012408 248.009843 228.757473 233.858527 228.757473 233.858527 243.082346 249.490106 243.082346 249.490106 245 231.608527 245 231.726948 211 249.608527 211 249.608527 212.821771"></polygon>
                <path d="M279.592951,240.471142 C278.882687,241.865752 277.766544,243.011292 276.392284,243.756109 C274.704281,244.635573 272.817683,245.061653 270.916443,244.992803 C268.969363,245.024529 267.041694,244.601101 265.286353,243.756109 C263.752209,243.002441 262.42757,241.880671 261.430126,240.490465 C260.491318,239.189547 259.912591,237.662896 259.752668,236.065421 L262.027842,236.065421 C262.218633,237.204215 262.631394,238.294188 263.242553,239.273095 C263.971353,240.432097 264.979136,241.388929 266.173285,242.055656 C267.624853,242.852133 269.262305,243.245715 270.916443,243.195732 C272.947366,243.339401 274.948028,242.64078 276.450127,241.263399 C277.731365,239.942009 278.426527,238.158497 278.37824,236.316625 C278.448532,234.843489 278.027988,233.388756 277.18281,232.181431 C276.396871,231.157831 275.37904,230.336484 274.213516,229.785337 C272.645915,229.091115 271.035916,228.497338 269.393233,228.00759 C267.61963,227.491167 265.886124,226.84533 264.206609,226.075257 C262.897922,225.455746 261.77434,224.502941 260.948098,223.312019 C260.001792,221.870778 259.535994,220.165876 259.6177,218.442539 C259.570399,216.138226 260.519464,213.925939 262.220653,212.375011 C264.21282,210.708267 266.764008,209.865223 269.354671,210.017564 C271.986056,209.889755 274.574753,210.720226 276.642938,212.355688 C278.347451,213.75956 279.512812,215.71291 279.940012,217.882162 L277.606995,217.882162 C277.231853,216.251441 276.338743,214.786788 275.061886,213.708321 C273.446756,212.354699 271.380049,211.664288 269.277547,211.775988 C267.343731,211.669002 265.437531,212.273724 263.917392,213.476441 C262.536955,214.705298 261.791505,216.498295 261.892874,218.345922 C261.836475,219.727543 262.243792,221.088239 263.049741,222.210589 C263.8084,223.197979 264.794035,223.986887 265.92263,224.510066 C267.437297,225.177945 268.996387,225.739671 270.588663,226.191197 C272.39282,226.710011 274.158211,227.355724 275.871693,228.12353 C277.213528,228.776827 278.367895,229.760851 279.22661,230.983384 C280.215812,232.500441 280.695456,234.294578 280.59557,236.104068 C280.633064,237.62109 280.288226,239.123091 279.592951,240.471142 L279.592951,240.471142 Z" id="Path" fill="#FFFFFF"></path>
                <path d="M349.901733,213.137653 C352.56152,215.058191 354.541896,217.767988 355.558768,220.878316 L353.24541,220.878316 C352.324317,218.32845 350.624953,216.129314 348.385415,214.589028 C345.9767,212.939269 343.104485,212.09236 340.181743,212.170071 C337.627189,212.150081 335.114832,212.818781 332.91119,214.105236 C330.718506,215.370108 328.931949,217.229081 327.759594,219.465645 C325.257948,224.665852 325.257948,230.714345 327.759594,235.914552 C328.925838,238.171819 330.721245,240.046415 332.93063,241.313664 C337.404134,243.780035 342.822812,243.845462 347.355096,241.487829 C349.496712,240.321262 351.277901,238.595002 352.506691,236.495102 C353.854567,234.131851 354.589514,231.471458 354.645089,228.75444 L339.404143,228.75444 L339.404143,227.051494 L356.608527,227.051494 L356.608527,228.618978 C356.540276,231.584456 355.760417,234.490662 354.334049,237.095003 C352.962994,239.526953 350.945104,241.535675 348.502055,242.9005 C343.193585,245.76054 336.779059,245.694711 331.530951,242.726335 C329.031216,241.235035 327.008665,239.067316 325.698956,236.47575 C322.911717,230.763583 322.911717,224.09412 325.698956,218.381952 C327.01765,215.811766 329.03939,213.665041 331.530951,212.189422 C334.138325,210.704457 337.100522,209.948885 340.103983,210.002685 C343.626748,209.950763 347.069114,211.05221 349.901733,213.137653 Z" id="Path" fill="#FFFFFF"></path>
                <polygon id="Path" fill="#FFFFFF" points="392.470623 245 390.244461 245 369.952893 214.643542 369.834689 244.94247 367.608527 244.94247 367.72673 211 369.952893 211 390.264161 241.356458 390.382365 211.076706 392.608527 211.076706"></polygon>
                <path d="M424.689352,241.431145 C423.974353,242.827908 422.859878,243.97896 421.48859,244.736955 C419.796299,245.625955 417.902703,246.05896 415.993308,245.99355 C414.053511,246.013973 412.134588,245.590836 410.382335,244.756288 C408.846855,243.995476 407.522278,242.866635 406.525996,241.469809 C405.584705,240.169622 405.005699,238.64158 404.848489,237.04273 L407.02732,237.04273 C407.221483,238.18113 407.634016,239.270969 408.242067,240.251879 C408.965634,241.415728 409.974689,242.37418 411.172884,243.03572 C412.6278,243.823937 414.262952,244.217135 415.916181,244.176321 C417.948085,244.327035 419.951489,243.627155 421.450027,242.243098 C422.729431,240.919894 423.424294,239.136384 423.378196,237.294049 C423.448491,235.820235 423.027934,234.364833 422.182731,233.156953 C421.389725,232.132047 420.365438,231.31047 419.194069,230.759757 C417.627987,230.066726 416.017617,229.479015 414.373646,229.000524 C412.606828,228.48213 410.879806,227.83603 409.206152,227.067302 C407.896512,226.449674 406.767619,225.504245 405.928264,224.322126 C404.997141,222.874176 404.538872,221.171435 404.617109,219.450405 C404.556909,217.142528 405.508213,214.924067 407.220137,213.380087 C409.203519,211.69668 411.761304,210.851092 414.354364,211.021555 C416.985826,210.893688 419.574598,211.724541 421.642844,213.360755 C423.351121,214.762061 424.517382,216.71776 424.940014,218.889771 L422.606929,218.889771 C422.227937,217.265295 421.335118,215.807271 420.061745,214.733342 C418.446569,213.379097 416.379801,212.688369 414.277237,212.80012 C412.344493,212.701956 410.441278,213.305991 408.916926,214.501356 C406.598823,216.861284 406.229882,220.520154 408.029968,223.297518 C408.794082,224.287813 409.786599,225.077274 410.922222,225.598053 C412.435983,226.273927 413.995207,226.842403 415.588392,227.299289 C417.395411,227.809651 419.161478,228.455891 420.871576,229.232511 C422.21723,229.880292 423.37297,230.865912 424.226591,232.09368 C425.215582,233.60434 425.695403,235.393138 425.595591,237.197388 C425.637463,238.661172 425.326593,240.113488 424.689352,241.431145 Z" id="Path" fill="#FFFFFF"></path>
            </g>
        </g>
    </g>
</svg>