<?xml version="1.0" encoding="UTF-8"?>
<svg width="44px" height="35px" viewBox="0 0 44 35" version="1.1" xmlns="http://www.w3.org/2000/svg" xmlns:xlink="http://www.w3.org/1999/xlink">
    <title>“</title>
    <g id="Page-1" stroke="none" stroke-width="1" fill="none" fill-rule="evenodd">
        <g id="About" transform="translate(-225.000000, -1477.000000)" fill="#68B996" fill-rule="nonzero">
            <g id="Group-9" transform="translate(225.000000, 1094.000000)">
                <path d="M20,418 L20,401.925926 L11.5789474,401.925926 L11.5789474,399.981481 C11.5789474,394.104938 13.9035088,391.166667 18.5526316,391.166667 L18.5526316,391.166667 L18.5526316,383 C12.5,383 7.89473684,384.79321 4.73684211,388.37963 C1.57894737,391.966049 0,396.697531 0,402.574074 C0,407.67284 0.921052632,412.814815 2.76315789,418 L2.76315789,418 L20,418 Z M44,418 L44,401.925926 L36.0728477,401.925926 L36.0728477,399.981481 C36.0728477,394.104938 38.2538631,391.166667 42.615894,391.166667 L42.615894,391.166667 L42.615894,383 C36.8278146,383 32.4448124,384.79321 29.4668874,388.37963 C26.4889625,391.966049 25,396.697531 25,402.574074 C25,407.58642 25.8388521,412.728395 27.5165563,418 L27.5165563,418 L44,418 Z" id="“"></path>
            </g>
        </g>
    </g>
</svg>