<?xml version="1.0" encoding="utf-8"?>
<!-- Generator: Adobe Illustrator 24.1.0, SVG Export Plug-In . SVG Version: 6.00 Build 0)  -->
<svg version="1.1" id="Layer_1" xmlns="http://www.w3.org/2000/svg" xmlns:xlink="http://www.w3.org/1999/xlink" x="0px" y="0px"
	 viewBox="0 0 50 50" style="enable-background:new 0 0 50 50;" xml:space="preserve">
<style type="text/css">
	.st0{fill:none;}
	.st1{fill:#68B996;}
</style>
<rect class="st0" width="50" height="50"/>
<path class="st1" d="M39.5,6.5H10.5c-2.2,0-4,1.8-4,4v29c0,2.2,1.8,4,4,4h29.1c2.2,0,4-1.8,4-4V10.5C43.5,8.3,41.7,6.5,39.5,6.5z
	 M35.5,19.6c0,0.2,0,0.5,0,0.7c0,8.5-6.9,15.4-15.4,15.4c-3,0-5.8-0.8-8.3-2.4c0.4,0,0.9,0.1,1.3,0.1c2.4,0,4.8-0.8,6.7-2.3
	c-2.3,0-4.3-1.5-5.1-3.8c0.8,0.1,1.6,0.1,2.5-0.1c-2.5-0.5-4.3-2.7-4.3-5.3v-0.1c0.7,0.4,1.6,0.7,2.4,0.7c-2.4-1.6-3.1-4.8-1.7-7.2
	c2.7,3.4,6.8,5.4,11.2,5.7c-0.6-2.9,1.2-5.8,4.2-6.4c1.8-0.4,3.7,0.2,5,1.5c1.2-0.2,2.4-0.7,3.4-1.3C37,16,36.2,17,35,17.7
	c1.1-0.1,2.1-0.4,3.1-0.8C37.4,17.9,36.5,18.9,35.5,19.6L35.5,19.6z"/>
</svg>
