<?xml version="1.0" encoding="utf-8"?>
<!-- Generator: Adobe Illustrator 24.1.0, SVG Export Plug-In . SVG Version: 6.00 Build 0)  -->
<svg version="1.1" id="Layer_1" xmlns="http://www.w3.org/2000/svg" xmlns:xlink="http://www.w3.org/1999/xlink" x="0px" y="0px"
	 viewBox="0 0 50 50" style="enable-background:new 0 0 50 50;" xml:space="preserve">
<style type="text/css">
	.st0{fill:none;}
	.st1{fill:#68B996;}
</style>
<rect class="st0" width="50" height="50"/>
<path class="st1" d="M25,15.5c-5.2,0-9.5,4.2-9.5,9.5s4.2,9.5,9.5,9.5s9.5-4.2,9.5-9.5C34.5,19.8,30.3,15.5,25,15.5
	C25,15.5,25,15.5,25,15.5z M25,31.2c-3.4,0-6.2-2.8-6.2-6.2s2.8-6.2,6.2-6.2s6.2,2.8,6.2,6.2l0,0C31.2,28.4,28.4,31.2,25,31.2z
	 M37.1,15.2c0,1.2-1,2.2-2.2,2.2c-1.2,0-2.2-1-2.2-2.2c0-1.2,1-2.2,2.2-2.2c0,0,0,0,0,0C36.1,12.9,37.1,13.9,37.1,15.2L37.1,15.2z
	 M43.4,17.4c-0.1-3-0.8-5.6-3-7.8s-4.8-2.8-7.8-3s-12.2-0.2-15.3,0s-5.6,0.8-7.8,3s-2.8,4.8-3,7.8s-0.2,12.2,0,15.3s0.8,5.6,3,7.8
	s4.8,2.8,7.8,3s12.2,0.2,15.3,0s5.6-0.8,7.8-3s2.8-4.8,3-7.8S43.5,20.5,43.4,17.4L43.4,17.4z M39.4,35.9c-0.6,1.6-1.9,2.9-3.5,3.5
	c-2.4,1-8.2,0.8-10.9,0.8s-8.5,0.2-10.9-0.8c-1.6-0.6-2.9-1.9-3.5-3.5c-1-2.4-0.7-8.2-0.7-10.9s-0.2-8.5,0.7-10.9
	c0.6-1.6,1.9-2.9,3.5-3.5c2.4-1,8.2-0.8,10.9-0.8s8.5-0.2,10.9,0.8c1.6,0.6,2.9,1.9,3.5,3.5c1,2.4,0.8,8.2,0.8,10.9
	S40.4,33.5,39.4,35.9z"/>
</svg>
