<?xml version="1.0" encoding="utf-8"?>
<!-- Generator: Adobe Illustrator 24.1.0, SVG Export Plug-In . SVG Version: 6.00 Build 0)  -->
<svg version="1.1" id="Layer_1" xmlns="http://www.w3.org/2000/svg" xmlns:xlink="http://www.w3.org/1999/xlink" x="0px" y="0px"
	 viewBox="0 0 50 50" style="enable-background:new 0 0 50 50;" xml:space="preserve">
<style type="text/css">
	.st0{fill:#68B996;}
	.st1{fill:none;}
</style>
<path class="st0" d="M39.5,6.5h-29c-2.2,0-4,1.8-4,4v29c0,2.2,1.8,4,4,4h11.3V30.9h-5.2V25h5.2v-4.5c0-5.1,3.1-8,7.7-8
	c1.5,0,3.1,0.2,4.6,0.4v5h-2.6c-2.5,0-3.3,1.6-3.3,3.2V25h5.7L33,30.9h-4.8v12.6h11.3c2.2,0,4-1.8,4-4v-29
	C43.5,8.3,41.7,6.5,39.5,6.5z"/>
<rect class="st1" width="50" height="50"/>
</svg>
