<?xml version="1.0" encoding="utf-8"?>
<!-- Generator: Adobe Illustrator 24.1.0, SVG Export Plug-In . SVG Version: 6.00 Build 0)  -->
<svg version="1.1" id="Layer_1" xmlns="http://www.w3.org/2000/svg" xmlns:xlink="http://www.w3.org/1999/xlink" x="0px" y="0px"
	 viewBox="0 0 401 229" style="enable-background:new 0 0 401 229;" xml:space="preserve">
<style type="text/css">
	.st0{fill:#FFFFFF;}
</style>
<path class="st0" d="M269.5,102.3c-3.9,10-7.6,19.4-11.4,28.9c-12.3,31.3-24.6,62.6-36.9,93.9c-1.5,3.8-1.5,3.9-5.8,3.9
	c-17.3,0-34.7,0.1-52,0c-7.6-0.1-15.3-0.5-22.9-0.8c-2.9-0.1-3-0.4-2.1-2.8c10.6-26.9,21.3-53.9,31.8-80.8
	c11.1-28.2,22-56.4,33.1-84.6c6.5-16.6,13.1-33.1,19.7-49.7c0.9-2.3,1.8-4.7,2.6-7c0.8-2.2,2.2-3.3,4.5-3.1c0.7,0,1.3,0,2,0
	c25,0,50,0,75,0c5.2,0,5.2,0,7.2,5c14.4,36.7,28.9,73.4,43.3,110.1c14.1,35.8,28.1,71.6,42.2,107.4c2.3,5.9,2,6.4-4.5,6.4
	c-23.5,0-47,0-70.5,0c-4.6,0-5.1,0.8-7.3-4.8c-15.1-38.6-30.3-77.2-45.5-115.7C271.3,106.6,270.5,104.8,269.5,102.3z"/>
<path class="st0" d="M101.6,0c31.8,0,63.7,0,95.5,0c6.7,0,6.8,0.1,4.4,6.3c-6.9,17.5-13.7,35-20.5,52.6c-0.3,0.8-0.7,1.5-0.9,2.3
	c-0.8,3.1-2.7,4.1-5.8,4c-11.5-0.2-23-0.1-34.5-0.1c-1.3,0-2.8-0.3-4,0.2c-1,0.4-2.1,1.5-2.4,2.5c-0.4,1.4-0.2,3-0.2,4.5
	c0,33.7-0.1,67.3,0,101c0,4.8-0.9,9.2-2.6,13.6c-5.1,12.8-10.2,25.7-15.1,38.6c-0.9,2.4-2.1,3.5-4.7,3.5c-17-0.1-34,0-51-0.1
	c-3.3,0-3.5-0.3-3.6-3.9c-0.1-1.3,0-2.7,0-4c0-49.7,0-99.3,0-149c0-6.9,0-7-6.9-6.9c-15.7,0.1-31.3,0.2-47,0.3c-1.6,0-2.1-0.6-2.1-2
	c0-1,0-2,0-3c0-18.3,0-36.7,0-55c0-1,0-2,0.1-3c0-1.6,1-2.4,2.5-2.4c1.5,0,3,0,4.5,0C38.6,0,70.1,0,101.6,0z"/>
</svg>
